<svg width="332" height="99" viewBox="0 0 332 99" fill="none" xmlns="http://www.w3.org/2000/svg">
<path d="M18.592 1.8L23.464 0.848L36.064 36.8L40.88 38.648L40.432 41H25.2L24.808 38.648L29.624 36.8L26.488 27.784H11.816L8.624 36.8L14.392 38.648L14 41H1.232L0.84 38.648L5.656 36.8L18.592 1.8ZM19.992 6.112L12.712 25.432H25.648L19.992 8.968V6.112ZM79.1998 8.184L66.8238 41L64.0798 41.952L53.1038 9.472L50.1918 36.8L54.9518 38.648L54.5598 41H43.4158L42.9678 38.648L47.7838 36.8L51.0878 6L46.2158 4.152L46.6078 1.8H56.7438L66.5998 30.808V34.896L79.0318 1.8H89.4478L89.8958 4.152L85.0238 6L87.6558 36.8L92.4158 38.648L92.0238 41H77.2958L76.9038 38.648L81.6638 36.8L79.1998 8.184ZM113.201 1.8L118.073 0.848L130.673 36.8L135.489 38.648L135.041 41H119.809L119.417 38.648L124.233 36.8L121.097 27.784H106.425L103.233 36.8L109.001 38.648L108.609 41H95.8414L95.4494 38.648L100.265 36.8L113.201 1.8ZM114.601 6.112L107.321 25.432H120.257L114.601 8.968V6.112ZM137.353 38.648L142.169 36.8V6L137.297 4.152L137.689 1.8H148.385L167.705 32.376V6L162.889 4.152L163.281 1.8H174.425L174.817 4.152L170.001 6V41L166.697 41.952L144.521 6.784V36.8L149.281 38.648L148.889 41H137.801L137.353 38.648ZM194.905 1.8L199.777 0.848L212.377 36.8L217.193 38.648L216.745 41H201.513L201.121 38.648L205.937 36.8L202.801 27.784H188.129L184.937 36.8L190.704 38.648L190.312 41H177.545L177.153 38.648L181.969 36.8L194.905 1.8ZM196.305 6.112L189.025 25.432H201.961L196.305 8.968V6.112ZM218.803 11.768V1.8H250.835V11.768L248.483 12.16L245.403 4.152H237.787V36.8L242.659 38.648L242.267 41H227.371L226.979 38.648L231.851 36.8V4.152H224.235L221.155 12.16L218.803 11.768ZM271.294 25.936C269.39 27.168 267.486 27.784 265.582 27.784C262.968 27.784 260.654 26.7387 258.638 24.648C256.659 22.52 255.67 19.8507 255.67 16.64C255.67 13.3173 256.79 10.4427 259.03 8.016C261.27 5.552 264.163 4.32 267.71 4.32C271.368 4.32 274.318 5.44 276.558 7.68C278.798 9.92 279.918 13 279.918 16.92C279.918 21.8107 278.07 26.72 274.374 31.648C270.715 36.5387 266.646 39.8613 262.166 41.616L260.99 39.544C264.611 37.7893 267.728 34.8027 270.342 30.584C272.992 26.328 274.318 21.792 274.318 16.976C274.318 10.4053 272.115 7.12 267.71 7.12C265.582 7.12 263.976 8.072 262.894 9.976C261.848 11.88 261.326 14.1573 261.326 16.808C261.326 19.384 261.811 21.3813 262.782 22.8C263.79 24.2187 265.04 24.9467 266.534 24.984C267.878 24.984 269.222 24.6853 270.566 24.088L271.294 25.936ZM285.654 41L285.262 38.816L291.758 37.64V9.36H285.374L284.926 7.12L294.67 4.936H297.414V37.64L303.686 38.816L303.238 41H285.654ZM318.928 23.696C315.755 25.6747 314.168 28.6053 314.168 32.488C314.168 34.504 314.728 36.072 315.848 37.192C316.968 38.2747 318.48 38.816 320.384 38.816C322.251 38.816 323.744 38.256 324.864 37.136C326.022 35.9787 326.6 34.448 326.6 32.544C326.6 29.4827 324.043 26.5333 318.928 23.696ZM323.688 20.784C324.883 21.4933 325.854 22.128 326.6 22.688C327.347 23.248 328.168 23.9947 329.064 24.928C329.998 25.8613 330.688 26.944 331.136 28.176C331.622 29.408 331.864 30.752 331.864 32.208C331.864 35.12 330.726 37.416 328.448 39.096C326.208 40.776 323.52 41.616 320.384 41.616C317.211 41.616 314.486 40.8133 312.208 39.208C309.968 37.6027 308.848 35.3627 308.848 32.488C308.848 31.48 309.035 30.5093 309.408 29.576C309.782 28.6427 310.174 27.896 310.584 27.336C310.995 26.7387 311.648 26.0853 312.544 25.376C313.478 24.6293 314.15 24.1253 314.56 23.864C315.008 23.5653 315.755 23.0987 316.8 22.464C314.672 21.2693 312.992 19.832 311.76 18.152C310.528 16.4347 309.912 14.5867 309.912 12.608C309.912 10.256 310.846 8.296 312.712 6.728C314.579 5.12266 317.136 4.32 320.384 4.32C323.632 4.32 326.171 5.08533 328 6.616C329.867 8.10933 330.8 9.93867 330.8 12.104C330.8 13.0747 330.595 14.008 330.184 14.904C329.774 15.7627 329.158 16.5653 328.336 17.312C327.515 18.0587 326.787 18.6747 326.152 19.16C325.518 19.608 324.696 20.1493 323.688 20.784ZM320.888 19.216L321.616 19.608C324.23 17.9653 325.536 15.576 325.536 12.44C325.536 10.6853 325.051 9.36 324.08 8.464C323.147 7.568 321.915 7.12 320.384 7.12C318.891 7.12 317.659 7.54933 316.688 8.408C315.718 9.26667 315.232 10.6107 315.232 12.44C315.232 14.904 317.118 17.1627 320.888 19.216ZM21.616 96.208C24.1173 96.208 26.488 95.8533 28.728 95.144L31.584 87.248L33.936 87.64V95.648C32.5547 96.656 30.7253 97.4587 28.448 98.056C26.208 98.6533 23.9307 98.952 21.616 98.952C18.1067 98.952 15.0267 98.3733 12.376 97.216C9.72533 96.0587 7.63467 94.4907 6.104 92.512C4.61067 90.5333 3.49067 88.368 2.744 86.016C2.03467 83.664 1.68 81.1253 1.68 78.4C1.68 75.7493 2.09067 73.2293 2.912 70.84C3.73333 68.4133 4.928 66.2293 6.496 64.288C8.064 62.3093 10.1547 60.7413 12.768 59.584C15.3813 58.4267 18.3307 57.848 21.616 57.848C26.0213 57.848 30.128 58.9493 33.936 61.152V68.768L31.584 69.16L28.896 61.656C26.432 60.9467 24.0053 60.592 21.616 60.592C17.0987 60.592 13.7387 62.0293 11.536 64.904C9.37067 67.7413 8.288 72.1467 8.288 78.12C8.288 90.1787 12.7307 96.208 21.616 96.208ZM53.4279 58.8L58.2999 57.848L70.8999 93.8L75.7159 95.648L75.2679 98H60.0359L59.6439 95.648L64.4599 93.8L61.3239 84.784H46.6519L43.4599 93.8L49.2279 95.648L48.8359 98H36.0679L35.6759 95.648L40.4919 93.8L53.4279 58.8ZM54.8279 63.112L47.5479 82.432H60.4839L54.8279 65.968V63.112ZM88.9477 61.152V93.8L93.7637 95.648L93.3717 98H78.6437L78.2517 95.648L83.0117 93.8V63L78.1397 61.152L78.5877 58.8H96.2277C100.222 58.8 103.209 59.752 105.188 61.656C107.204 63.5227 108.212 66.1547 108.212 69.552C108.212 72.8 107.036 75.432 104.684 77.448C102.369 79.4267 99.5877 80.416 96.3397 80.416L99.2517 81.872L106.532 93.8L111.348 95.648L110.956 98H100.316L100.764 95.648L91.3557 80.304V77.952H93.9877C96.489 77.952 98.5237 77.0933 100.092 75.376C101.697 73.6587 102.5 71.7173 102.5 69.552C102.5 63.952 99.6997 61.152 94.0997 61.152H88.9477ZM121.114 78.12C121.114 79.9493 121.226 81.6853 121.45 83.328C121.711 84.9707 122.159 86.5947 122.794 88.2C123.466 89.8053 124.306 91.1867 125.314 92.344C126.322 93.5013 127.647 94.4347 129.29 95.144C130.97 95.8533 132.874 96.208 135.002 96.208C137.092 96.208 139.22 95.9467 141.386 95.424V83.832L136.57 81.928L136.962 79.576H151.802L152.25 81.928L147.378 83.832V95.648C145.996 96.656 144.167 97.4587 141.89 98.056C139.65 98.6533 137.372 98.952 135.058 98.952C131.548 98.952 128.431 98.3733 125.706 97.216C123.018 96.0587 120.871 94.5093 119.266 92.568C117.698 90.5893 116.522 88.4053 115.738 86.016C114.954 83.6267 114.562 81.088 114.562 78.4C114.562 72.5387 116.428 67.648 120.162 63.728C123.932 59.808 128.898 57.848 135.058 57.848C139.463 57.848 143.57 58.9493 147.378 61.152V68.768L145.026 69.16L142.338 61.656C139.836 60.9467 137.41 60.592 135.058 60.592C133.079 60.592 131.287 60.9093 129.682 61.544C128.114 62.1787 126.788 63.056 125.706 64.176C124.66 65.2587 123.783 66.5467 123.074 68.04C122.364 69.5333 121.86 71.12 121.562 72.8C121.263 74.48 121.114 76.2533 121.114 78.12ZM175.736 57.848C181.747 57.848 186.357 59.7707 189.568 63.616C192.779 67.424 194.384 72.352 194.384 78.4C194.384 81.3867 194.029 84.0933 193.32 86.52C192.611 88.9467 191.528 91.112 190.072 93.016C188.616 94.8827 186.675 96.3387 184.248 97.384C181.821 98.4293 178.984 98.952 175.736 98.952C172.525 98.952 169.669 98.3733 167.168 97.216C164.704 96.0587 162.744 94.5093 161.288 92.568C159.869 90.5893 158.805 88.4053 158.096 86.016C157.387 83.6267 157.032 81.088 157.032 78.4C157.032 74.816 157.704 71.512 159.048 68.488C160.392 65.4267 162.501 62.888 165.376 60.872C168.288 58.856 171.741 57.848 175.736 57.848ZM175.736 60.592C171.555 60.592 168.493 62.0107 166.552 64.848C164.611 67.6853 163.64 72.1093 163.64 78.12C163.64 84.2053 164.611 88.7413 166.552 91.728C168.493 94.7147 171.555 96.208 175.736 96.208C183.8 96.208 187.832 90.1787 187.832 78.12C187.832 72.2213 186.843 67.8347 184.864 64.96C182.923 62.048 179.88 60.592 175.736 60.592Z" fill="#445473"/>
</svg>
