<svg width="83" height="83" viewBox="0 0 83 83" fill="none" xmlns="http://www.w3.org/2000/svg">
<path d="M80.4669 62.745C77.8996 60.5918 62.8419 51.0567 60.3392 51.4944C59.1642 51.7029 58.2653 52.7046 55.8595 55.5746C54.7469 56.9872 53.5251 58.3102 52.2052 59.5314C49.7871 58.9472 47.4463 58.0796 45.2316 56.9464C36.5463 52.7178 29.5296 45.6991 25.3036 37.0125C24.1704 34.7978 23.3028 32.4571 22.7186 30.0389C23.9398 28.719 25.2628 27.4972 26.6754 26.3846C29.5424 23.9788 30.5471 23.0858 30.7556 21.9049C31.1933 19.3963 21.6494 4.34456 19.505 1.77719C18.6061 0.713813 17.7895 0 16.7437 0C13.7122 0 0 16.9553 0 19.1525C0 19.3317 0.29375 36.9831 22.5864 59.6636C45.2669 81.9563 62.9183 82.25 63.0975 82.25C65.2947 82.25 82.25 68.5378 82.25 65.5062C82.25 64.4605 81.5362 63.6439 80.4669 62.745Z" fill="url(#paint0_linear_125_652)"/>
<path d="M61.6875 38.1875H67.5625C67.5555 31.9571 65.0774 25.9838 60.6718 21.5782C56.2662 17.1726 50.2929 14.6945 44.0625 14.6875V20.5625C48.7355 20.5672 53.2158 22.4256 56.5201 25.7299C59.8244 29.0342 61.6828 33.5145 61.6875 38.1875Z" fill="url(#paint1_linear_125_652)"/>
<path d="M76.375 38.1875H82.25C82.2383 28.0631 78.2113 18.3568 71.0523 11.1977C63.8932 4.03872 54.1869 0.0116618 44.0625 0V5.875C52.6292 5.88511 60.8421 9.2927 66.8997 15.3503C72.9573 21.4079 76.3649 29.6208 76.375 38.1875Z" fill="url(#paint2_linear_125_652)"/>
<defs>
<linearGradient id="paint0_linear_125_652" x1="41.125" y1="0" x2="41.125" y2="82.25" gradientUnits="userSpaceOnUse">
<stop stop-color="#FF8D44"/>
<stop offset="1" stop-color="#FF8D44" stop-opacity="0"/>
</linearGradient>
<linearGradient id="paint1_linear_125_652" x1="55.8125" y1="14.6875" x2="55.8125" y2="38.1875" gradientUnits="userSpaceOnUse">
<stop stop-color="#FF8D44"/>
<stop offset="1" stop-color="#FF8D44" stop-opacity="0"/>
</linearGradient>
<linearGradient id="paint2_linear_125_652" x1="63.1562" y1="0" x2="63.1562" y2="38.1875" gradientUnits="userSpaceOnUse">
<stop stop-color="#FF8D44"/>
<stop offset="1" stop-color="#FF8D44" stop-opacity="0"/>
</linearGradient>
</defs>
</svg>
