<svg width="16" height="16" viewBox="0 0 16 16" fill="none" xmlns="http://www.w3.org/2000/svg">
<path d="M12.8868 3.78685L8.70678 1.53352C8.26678 1.29352 7.73345 1.29352 7.29345 1.53352L3.11345 3.78685C2.80678 3.95352 2.62012 4.27352 2.62012 4.64018C2.62012 5.00018 2.80678 5.32685 3.11345 5.49352L7.29345 7.74685C7.51345 7.86685 7.76012 7.92685 8.00012 7.92685C8.24012 7.92685 8.48678 7.86685 8.70678 7.74685L12.8868 5.49352C13.1935 5.32685 13.3801 5.00685 13.3801 4.64018C13.3801 4.27352 13.1935 3.95352 12.8868 3.78685Z" fill="white"/>
<path d="M6.60659 8.5265L2.71325 6.57984C2.41325 6.43317 2.06659 6.4465 1.78659 6.61984C1.49992 6.79984 1.33325 7.09984 1.33325 7.43317V11.1065C1.33325 11.7398 1.68659 12.3132 2.25325 12.5998L6.13992 14.5465C6.27325 14.6132 6.41992 14.6465 6.56659 14.6465C6.73992 14.6465 6.91325 14.5998 7.06659 14.5065C7.35325 14.3332 7.51992 14.0265 7.51992 13.6932V10.0198C7.52659 9.37984 7.17325 8.8065 6.60659 8.5265Z" fill="white"/>
<path d="M14.2133 6.62009C13.9266 6.44676 13.58 6.42676 13.2866 6.58009L9.39998 8.52676C8.83331 8.81343 8.47998 9.38009 8.47998 10.0201V13.6934C8.47998 14.0268 8.64665 14.3334 8.93331 14.5068C9.08665 14.6001 9.25998 14.6468 9.43331 14.6468C9.57998 14.6468 9.72665 14.6134 9.85998 14.5468L13.7466 12.6001C14.3133 12.3134 14.6666 11.7468 14.6666 11.1068V7.43343C14.6666 7.10009 14.5 6.80009 14.2133 6.62009Z" fill="white"/>
</svg>
