<svg width="94" height="94" viewBox="0 0 94 94" fill="none" xmlns="http://www.w3.org/2000/svg">
<path d="M77.5109 16.5284C65.9176 4.97425 47.1175 4.97425 35.6025 16.5284C27.495 24.5576 25.0667 36.1118 28.2 46.2951L9.79171 64.7034C8.49921 66.0351 7.59838 68.6593 7.87254 70.5393L9.04754 79.0776C9.47838 81.8976 12.1025 84.5609 14.9225 84.9526L23.4609 86.1276C25.3409 86.4017 27.965 85.5401 29.2967 84.1692L32.5084 80.9576C33.2917 80.2134 33.2917 78.9601 32.5084 78.1767L24.91 70.5784C23.7742 69.4426 23.7742 67.5626 24.91 66.4267C26.0459 65.2909 27.9259 65.2909 29.0617 66.4267L36.6992 74.0642C37.4434 74.8084 38.6967 74.8084 39.4409 74.0642L47.7442 65.8001C57.8884 68.9726 69.4426 66.5051 77.5109 58.4759C89.0651 46.9218 89.0651 28.0826 77.5109 16.5284ZM56.7917 47.0001C51.3867 47.0001 47 42.6134 47 37.2084C47 31.8034 51.3867 27.4168 56.7917 27.4168C62.1967 27.4168 66.5834 31.8034 66.5834 37.2084C66.5834 42.6134 62.1967 47.0001 56.7917 47.0001Z" fill="url(#paint0_linear_202_639)"/>
<defs>
<linearGradient id="paint0_linear_202_639" x1="46.9999" y1="7.86279" x2="46.9999" y2="86.1784" gradientUnits="userSpaceOnUse">
<stop stop-color="#FF8D44"/>
<stop offset="1" stop-color="#FF8D44" stop-opacity="0"/>
</linearGradient>
</defs>
</svg>
