<svg width="34" height="34" viewBox="0 0 34 34" fill="none" xmlns="http://www.w3.org/2000/svg">
    <path
        d="M31.1668 17C31.1668 9.19415 24.806 2.83331 17.0002 2.83331C9.19433 2.83331 2.8335 9.19415 2.8335 17C2.8335 21.1083 4.60433 24.8058 7.40933 27.3983C7.40933 27.4125 7.40933 27.4125 7.39516 27.4266C7.53683 27.5683 7.70683 27.6816 7.8485 27.8091C7.9335 27.88 8.00433 27.9508 8.08933 28.0075C8.34433 28.22 8.62766 28.4183 8.89683 28.6166C8.996 28.6875 9.081 28.7441 9.18016 28.815C9.44933 28.9991 9.73266 29.1691 10.0302 29.325C10.1293 29.3816 10.2427 29.4525 10.3418 29.5091C10.6252 29.665 10.9227 29.8066 11.2343 29.9341C11.3477 29.9908 11.461 30.0475 11.5743 30.09C11.886 30.2175 12.1977 30.3308 12.5093 30.43C12.6227 30.4725 12.736 30.515 12.8493 30.5433C13.1893 30.6425 13.5293 30.7275 13.8693 30.8125C13.9685 30.8408 14.0677 30.8691 14.181 30.8833C14.5777 30.9683 14.9743 31.025 15.3852 31.0675C15.4418 31.0675 15.4985 31.0816 15.5552 31.0958C16.0368 31.1383 16.5185 31.1666 17.0002 31.1666C17.4818 31.1666 17.9635 31.1383 18.431 31.0958C18.4877 31.0958 18.5443 31.0816 18.601 31.0675C19.0118 31.025 19.4085 30.9683 19.8052 30.8833C19.9043 30.8691 20.0035 30.8266 20.1168 30.8125C20.4568 30.7275 20.811 30.6566 21.1368 30.5433C21.2502 30.5008 21.3635 30.4583 21.4768 30.43C21.7885 30.3166 22.1143 30.2175 22.4118 30.09C22.5252 30.0475 22.6385 29.9908 22.7518 29.9341C23.0493 29.8066 23.3468 29.665 23.6443 29.5091C23.7577 29.4525 23.8568 29.3816 23.956 29.325C24.2393 29.155 24.5227 28.9991 24.806 28.815C24.9052 28.7583 24.9902 28.6875 25.0893 28.6166C25.3727 28.4183 25.6418 28.22 25.8968 28.0075C25.9818 27.9366 26.0527 27.8658 26.1377 27.8091C26.2935 27.6816 26.4493 27.5541 26.591 27.4266C26.591 27.4125 26.591 27.4125 26.5768 27.3983C29.396 24.8058 31.1668 21.1083 31.1668 17ZM23.9985 24.0408C20.1593 21.4625 13.8693 21.4625 10.0018 24.0408C9.3785 24.4516 8.8685 24.9333 8.4435 25.4575C6.29016 23.2758 4.9585 20.2866 4.9585 17C4.9585 10.3558 10.356 4.95831 17.0002 4.95831C23.6443 4.95831 29.0418 10.3558 29.0418 17C29.0418 20.2866 27.7102 23.2758 25.5568 25.4575C25.146 24.9333 24.6218 24.4516 23.9985 24.0408Z"
        fill="#0D5DFF"/>
    <path
        d="M17 9.8175C14.0675 9.8175 11.6875 12.1975 11.6875 15.13C11.6875 18.0058 13.94 20.3433 16.9292 20.4283C16.9717 20.4283 17.0283 20.4283 17.0567 20.4283C17.085 20.4283 17.1275 20.4283 17.1558 20.4283C17.17 20.4283 17.1842 20.4283 17.1842 20.4283C20.0458 20.3292 22.2983 18.0058 22.3125 15.13C22.3125 12.1975 19.9325 9.8175 17 9.8175Z"
        fill="#0D5DFF"/>
</svg>
